<?xml version="1.0" encoding="utf-8"?>
<svg viewBox="0 0 1000 1000" xmlns="http://www.w3.org/2000/svg">
  <defs>
    <linearGradient id="bg" x1="0" y1="0" x2="0" y2="1">
      <stop offset="0" stop-color="#ffd24e"/>
      <stop offset="1" stop-color="#f7a81c"/>
    </linearGradient>
  </defs>
  <rect x="100" y="100" width="800" height="800" rx="180" ry="180" fill="url(#bg)"/>
  <g transform="translate(500 352) scale(0.75) translate(-500 -482.5)" fill="#1f2230">
    <path d="m498.73 357.2c-29.094 0-168.26 108.44-192.06 108.44-25.635 0-186.77-62.257-205.28-49.846-10.376 22.38 157.88 198.57 203.66 198.57 44.963 0 178.22-93.792 193.69-93.792 15.462 0 148.72 93.792 193.69 93.792 45.777 0 214.03-176.19 203.66-198.57-18.514-12.614-179.65 49.846-205.28 49.846-23.804 0-162.97-108.44-192.06-108.44z"/>
  </g>
  <g transform="translate(120 902) scale(0.75) rotate(-90)" fill="#1f2230">
    <path d="M 498.73 357.2 C 469.636 357.2 330.47 465.64 306.67 465.64 C 281.035 465.64 119.9 403.383 101.39 415.794 C 91.014 438.174 259.27 614.364 305.05 614.364 C 350.013 614.364 483.27 520.572 498.74 520.572 C 514.202 520.572 647.46 614.364 692.43 614.364 C 738.207 614.364 710.931 533.74 700.561 511.36 C 682.047 498.746 716.44 465.64 690.81 465.64 C 667.006 465.64 527.84 357.2 498.75 357.2 L 498.73 357.2 Z"/>
  </g>
</svg>